# xmcd
#
# Track frame offsets:
# 150
# 17777
# 37347
# 59870
# 79955
# 99010
# 110645
# 135512
# 158040
# 181390
# 201240
# 231190
#
# Disc length: 3345 seconds
#
#
# Revision: 0
# Processed by: cddbd v1.4PL0 Copyright (c) Steve Scherf et al.
# Submitted via: FreeRIP 2.40 
#
DISCID=a60d0f0c
DTITLE=Devotees - Gimme Gimme
DYEAR=1997
DGENRE=Rock
TTITLE0=Smile
TTITLE1=Walk Not Run
TTITLE2=Straight Right To Me
TTITLE3=Who's Responsible
TTITLE4=Dominique Dear
TTITLE5=Chameleon
TTITLE6=I
TTITLE7=Emperor
TTITLE8=Rabbi's Daughter
TTITLE9=Brave Face
TTITLE10=King Solomon
TTITLE11=Walk In Love
EXTD=
EXTT0=
EXTT1=
EXTT2=
EXTT3=
EXTT4=
EXTT5=
EXTT6=
EXTT7=
EXTT8=
EXTT9=
EXTT10=
EXTT11=
PLAYORDER=
